<svg width="430" height="36" viewBox="0 0 430 36" fill="none" xmlns="http://www.w3.org/2000/svg">
<path d="M314.751 17.9998L310.537 13.5116L306.323 17.9998L310.537 22.488L314.751 17.9998Z" fill="#D6B66B"/>
<path d="M123.681 18.0012L119.467 13.5131L115.253 18.0012L119.467 22.4894L123.681 18.0012Z" fill="#D6B66B"/>
<path d="M14.1601 17.999L11.5294 15.1971L8.89875 17.999L11.5294 20.8008L14.1601 17.999Z" fill="#D6B66B"/>
<path d="M421.105 18.0004L418.475 15.1986L415.844 18.0004L418.475 20.8023L421.105 18.0004Z" fill="#D6B66B"/>
<path d="M139.14 14.2273L137.673 10.5179L131.699 17.5572H136.314L139.14 14.2273Z" fill="#179999"/>
<path d="M136.128 18.2307H131.514L137.676 25.4858L139.195 21.8434L136.128 18.2307Z" fill="#0B7373"/>
<path d="M139.775 22.1149L138.256 25.761H211.593L208.174 22.1149H139.775Z" fill="#004040"/>
<path d="M290.318 22.1149H221.92L218.496 25.761H291.837L290.318 22.1149Z" fill="#004040"/>
<path d="M293.87 17.6651H298.485L292.417 10.5179L290.953 14.2236L293.87 17.6651Z" fill="#0B7373"/>
<path d="M290.401 13.885L291.841 10.2389H218.496L221.92 13.885H290.401Z" fill="#179999"/>
<path d="M138.25 10.2389L139.693 13.885H208.175L211.595 10.2389H138.25Z" fill="#179999"/>
<path d="M222.553 21.4415H290.381L293.305 18L290.381 14.5585H222.553L225.784 18L222.553 21.4415Z" fill="#0B7373"/>
<path d="M207.538 14.5585H139.71L136.789 18L139.71 21.4415H207.542L204.307 18L207.538 14.5585Z" fill="#0B7373"/>
<path d="M290.895 21.8434L292.414 25.4858L298.486 18.3386H293.871L290.895 21.8434Z" fill="#004040"/>
<path d="M215.052 13.0923L210.436 18.0093L215.052 22.9263L219.669 18.0093L215.052 13.0923Z" fill="#D6B66B"/>
<path d="M214.655 23.6776L209.715 18.4167H205.803L214.655 27.8446V23.6776Z" fill="#B39859"/>
<path d="M215.438 12.3224L220.377 17.5833H224.289L215.438 8.1554V12.3224Z" fill="#EDD395"/>
<path d="M214.655 12.3224V8.1554L205.803 17.5833H209.715L214.655 12.3224Z" fill="#D6B66B"/>
<path d="M215.438 23.6776V27.8446L224.289 18.4167H220.377L215.438 23.6776Z" fill="#B39859"/>
<path d="M310.537 18H418.472" stroke="#D6B66B" stroke-width="3.9" stroke-miterlimit="10"/>
<path d="M11.5273 18H119.462" stroke="#D6B66B" stroke-width="3.9" stroke-miterlimit="10"/>
</svg>
